<svg width="48" height="53" viewBox="0 0 48 53" fill="none" xmlns="http://www.w3.org/2000/svg">
<path id="Vector" d="M46.2857 22.7143H44.5714V15.1429H41.1429V22.7143H37.7143V15.1429H34.2857V22.7143H32.5714C32.1168 22.7143 31.6807 22.9137 31.3592 23.2687C31.0378 23.6237 30.8571 24.1051 30.8571 24.6071V32.1786C30.8597 34.3593 31.5431 36.4724 32.7922 38.1616C34.0413 39.8507 35.7797 41.0127 37.7143 41.4517V47.3214C37.7143 47.8234 37.5337 48.3049 37.2122 48.6599C36.8907 49.0149 36.4547 49.2143 36 49.2143H5.14286C4.6882 49.2143 4.25217 49.0149 3.93067 48.6599C3.60918 48.3049 3.42857 47.8234 3.42857 47.3214C3.42857 46.8194 3.60918 46.338 3.93067 45.983C4.25217 45.628 4.6882 45.4286 5.14286 45.4286H13.7143C15.0783 45.4286 16.3864 44.8303 17.3508 43.7654C18.3153 42.7004 18.8571 41.2561 18.8571 39.75C18.8571 38.2439 18.3153 36.7996 17.3508 35.7346C16.3864 34.6697 15.0783 34.0714 13.7143 34.0714H5.14286C4.6882 34.0714 4.25217 33.872 3.93067 33.517C3.60918 33.162 3.42857 32.6806 3.42857 32.1786C3.42857 31.6766 3.60918 31.1951 3.93067 30.8401C4.25217 30.4851 4.6882 30.2857 5.14286 30.2857H13.7143C15.0778 30.2842 16.3852 29.6855 17.3493 28.6208C18.3135 27.5562 18.8558 26.1127 18.8571 24.6071V17.0357H20.5714C22.3894 17.0332 24.1322 16.2347 25.4177 14.8153C26.7031 13.396 27.4263 11.4716 27.4286 9.46429V3.78571H22.2857C20.5305 3.78858 18.8439 4.53839 17.5766 5.87921C16.6885 4.09998 15.3847 2.61612 13.8009 1.58212C12.2172 0.548123 10.4113 0.00179035 8.57143 0H3.42857V5.67857C3.43175 8.6896 4.51644 11.5763 6.4447 13.7054C8.37295 15.8345 10.9873 17.0322 13.7143 17.0357H15.4286V24.6071C15.4286 25.1092 15.248 25.5906 14.9265 25.9456C14.605 26.3006 14.1689 26.5 13.7143 26.5H5.14286C3.77889 26.5 2.47078 27.0983 1.50631 28.1632C0.541835 29.2282 0 30.6725 0 32.1786C0 33.6846 0.541835 35.129 1.50631 36.1939C2.47078 37.2589 3.77889 37.8571 5.14286 37.8571H13.7143C14.1689 37.8571 14.605 38.0566 14.9265 38.4115C15.248 38.7665 15.4286 39.248 15.4286 39.75C15.4286 40.252 15.248 40.7335 14.9265 41.0885C14.605 41.4434 14.1689 41.6429 13.7143 41.6429H5.14286C3.77889 41.6429 2.47078 42.2411 1.50631 43.3061C0.541835 44.371 0 45.8154 0 47.3214C0 48.8275 0.541835 50.2718 1.50631 51.3368C2.47078 52.4017 3.77889 53 5.14286 53H36C37.3636 52.9985 38.6709 52.3997 39.635 51.3351C40.5992 50.2705 41.1415 48.827 41.1429 47.3214V41.4517C43.0774 41.0127 44.8158 39.8507 46.0649 38.1616C47.314 36.4724 47.9974 34.3593 48 32.1786V24.6071C48 24.1051 47.8194 23.6237 47.4979 23.2687C47.1764 22.9137 46.7404 22.7143 46.2857 22.7143ZM18.8571 11.3571C18.8581 10.3534 19.2196 9.39109 19.8624 8.68135C20.5051 7.9716 21.3767 7.57243 22.2857 7.57143H24V9.46429C23.9991 10.468 23.6376 11.4303 22.9948 12.1401C22.352 12.8498 21.4805 13.249 20.5714 13.25H18.8571V11.3571ZM13.7143 13.25C11.8964 13.2475 10.1535 12.449 8.86806 11.0296C7.58259 9.61024 6.85941 7.68587 6.85714 5.67857V3.78571H8.57143C10.3894 3.78822 12.1322 4.58672 13.4177 6.0061C14.7031 7.42548 15.4263 9.34984 15.4286 11.3571V13.25H13.7143ZM44.5714 32.1786C44.5714 33.6846 44.0296 35.129 43.0651 36.1939C42.1006 37.2589 40.7925 37.8571 39.4286 37.8571C38.0646 37.8571 36.7565 37.2589 35.792 36.1939C34.8275 35.129 34.2857 33.6846 34.2857 32.1786V26.5H44.5714V32.1786Z" fill="black"/>
</svg>
